<svg id="Blocks" xmlns="http://www.w3.org/2000/svg" viewBox="0 0 500 500"><defs><style>.cls-1,.cls-2{fill:#e6e6e6;}.cls-1,.cls-3{stroke:#e6e6e6;stroke-miterlimit:10;}.cls-1{stroke-width:10px;}.cls-3{fill:none;stroke-width:12.69px;}</style></defs><title>Heading block 2</title><path class="cls-1" d="M105.79,123.53H155.2V140H122.25V354.17H155.2v16.46H105.79Z"/><path class="cls-1" d="M393.25,375.63H343.84V359.17h33V145h-33V128.53h49.41Z"/><path class="cls-2" d="M215.57,219.9v14l-31.16,17.12,31.11,17.12,0,14-44.18-25.5v-11.3Z"/><path class="cls-2" d="M282.5,282.15v-14L313.71,251l-31.16-17.18-.05-13.92,44.18,25.5v11.31Z"/><path class="cls-2" d="M273.54,282.36H261V248.22q0-5.53-2.51-7.78a8.51,8.51,0,0,0-5.87-2.25,11.7,11.7,0,0,0-9,4q-3.65,4-3.65,13.12v27.07H227.37V211.85h12.57v27.48q4.69-11.27,16.44-11.26,17.16,0,17.16,18.44Z"/><line class="cls-3" x1="171.39" y1="194.68" x2="326.68" y2="194.68"/><line class="cls-3" x1="171.39" y1="301.93" x2="326.68" y2="301.93"/></svg>