<svg id="Blocks" xmlns="http://www.w3.org/2000/svg" viewBox="0 0 500 500"><defs><style>.cls-1,.cls-2{fill:#757575;}.cls-1,.cls-3{stroke:#757575;stroke-miterlimit:10;}.cls-1{stroke-width:10px;}.cls-3{fill:none;stroke-width:12.69px;}</style></defs><title>Heading block</title><path class="cls-1" d="M107.34,123.53h49.41V140H123.8V354.17h33v16.46H107.34Z"/><path class="cls-1" d="M394.8,375.63H345.38V359.17h33V145h-33V128.53H394.8Z"/><path class="cls-2" d="M217.12,219.9v14L186,251.06l31.11,17.12.05,14-44.18-25.5v-11.3Z"/><path class="cls-2" d="M284,282.15v-14L315.26,251l-31.17-17.18,0-13.92,44.19,25.5v11.31Z"/><path class="cls-2" d="M275.09,282.36H262.51V248.22q0-5.53-2.51-7.78a8.51,8.51,0,0,0-5.87-2.25,11.73,11.73,0,0,0-9,4q-3.63,4-3.64,13.12v27.07H228.92V211.85h12.57v27.48q4.69-11.27,16.44-11.26,17.16,0,17.16,18.44Z"/><line class="cls-3" x1="172.94" y1="194.68" x2="328.23" y2="194.68"/><line class="cls-3" x1="172.94" y1="301.93" x2="328.23" y2="301.93"/></svg>