<svg id="Blocks" xmlns="http://www.w3.org/2000/svg" viewBox="0 0 500 500"><defs><style>.cls-1,.cls-2{fill:#e6e6e6;}.cls-2{stroke:#e6e6e6;stroke-miterlimit:10;stroke-width:10px;}</style></defs><title>Basic Heading block 2</title><path class="cls-1" d="M214.25,212.25v15.49l-34.39,18.89,34.34,18.89.05,15.42L165.49,252.8V240.32Z"/><path class="cls-1" d="M288.1,280.94V265.45l34.45-18.89-34.39-18.95-.06-15.36,48.76,28.14v12.48Z"/><path class="cls-1" d="M278.22,281.17H264.34V243.49c0-4.07-.93-6.93-2.77-8.58a9.43,9.43,0,0,0-6.48-2.48,13,13,0,0,0-9.93,4.39q-4,4.4-4,14.48v29.87H227.27V203.36h13.88v30.33q5.16-12.44,18.14-12.43,18.93,0,18.93,20.35Z"/><path class="cls-2" d="M107.78,123.42H157.2v16.46h-33V354.06h33v16.46H107.78Z"/><path class="cls-2" d="M395.24,375.52H345.83V359.06h32.95V144.88H345.83V128.42h49.41Z"/></svg>