<svg id="Blocks" xmlns="http://www.w3.org/2000/svg" viewBox="0 0 500 500"><defs><style>.cls-1,.cls-2{fill:#e6e6e6;}.cls-1{stroke:#e6e6e6;stroke-miterlimit:10;stroke-width:10px;}</style></defs><title>Quote block 2</title><path class="cls-1" d="M104.14,120.93h49.41v16.46h-33V351.57h33V368H104.14Z"/><path class="cls-1" d="M391.6,373H342.18V356.57h33V142.39h-33V125.93H391.6Z"/><path class="cls-2" d="M205.33,267.38v-62.2c0-1.47,0-1.49,1.46-1.49,9.75,0,19.5,0,29.26,0,.95,0,1.28.27,1.28,1.26,0,9.92,0,19.85-.06,29.77a2.87,2.87,0,0,1-.87,1.78c-2.8,2.86-5.68,5.64-8.51,8.47q-7.08,7.09-14.14,14.22-3.62,3.63-7.24,7.24C206.22,266.69,205.88,266.93,205.33,267.38Z"/><path class="cls-2" d="M258.41,267v-61.9c0-1.46,0-1.46,1.46-1.46h29.05c1.44,0,1.48,0,1.48,1.47q0,14.68,0,29.36a2.28,2.28,0,0,1-.73,1.76q-9.53,9.5-19,19-5.49,5.51-11,11c-.3.3-.64.56-1,.84Z"/></svg>