<svg id="Blocks" xmlns="http://www.w3.org/2000/svg" viewBox="0 0 500 500"><defs><style>.cls-1,.cls-2{fill:#757575;}.cls-1{stroke:#757575;stroke-miterlimit:10;stroke-width:10px;}</style></defs><title>Quote block</title><path class="cls-1" d="M106.32,120.93h49.42v16.46H122.79V351.57h33V368H106.32Z"/><path class="cls-1" d="M393.78,373H344.37V356.57h32.95V142.39H344.37V125.93h49.41Z"/><path class="cls-2" d="M207.51,267.38v-62.2c0-1.47,0-1.49,1.46-1.49,9.75,0,19.51,0,29.26,0,1,0,1.29.27,1.28,1.26,0,9.92,0,19.85,0,29.77a3,3,0,0,1-.87,1.78c-2.81,2.86-5.68,5.64-8.51,8.47-4.73,4.73-9.43,9.48-14.15,14.22q-3.6,3.63-7.23,7.24C208.41,266.69,208.06,266.93,207.51,267.38Z"/><path class="cls-2" d="M260.6,267v-61.9c0-1.46,0-1.46,1.45-1.46H291.1c1.45,0,1.48,0,1.48,1.47q0,14.68,0,29.36a2.25,2.25,0,0,1-.73,1.76q-9.53,9.5-19,19l-11,11c-.31.3-.65.56-1,.84Z"/></svg>