<svg xmlns="http://www.w3.org/2000/svg" viewBox="0 0 500 500"><defs><style>.cls-1{fill:#757575;}</style></defs><title>Store block</title><g id="Blocks"><path class="cls-1" d="M256,228.12q-5.79,0-8.74,9.42a47.13,47.13,0,0,0-2.06,14.32q0,10.11,6.68,10.11,5.88,0,8.93-9.32a46.83,46.83,0,0,0,2.15-14.23,15,15,0,0,0-1.47-6.77A5.78,5.78,0,0,0,256,228.12Z"/><path class="cls-1" d="M341.94,227.33q-3.82,0-6.87,4a22.28,22.28,0,0,0-3.73,7.46H349.6l.09-1.67a12.16,12.16,0,0,0-2-6.82A6.49,6.49,0,0,0,341.94,227.33Z"/><path class="cls-1" d="M365.53,166.08H133.15a26.5,26.5,0,0,0-26.49,26.61V281.4A26.6,26.6,0,0,0,133.27,308H243.33l50.31,28L282.2,308h83.33a26.6,26.6,0,0,0,26.61-26.61V192.69A26.6,26.6,0,0,0,365.53,166.08Zm-200,61.15q13,4.32,15.8,6.09,8.43,5.2,8.44,15.8a20.33,20.33,0,0,1-8.64,17.07Q173.35,272,162.36,272q-10.41,0-17.67-4.41-7.84-4.9-10.2-14.72a6.23,6.23,0,0,0-.49-2.06L148.33,249q2.64,10.2,14.23,10.2a14,14,0,0,0,7.45-1.86,6.89,6.89,0,0,0,3.63-6.28q0-4.91-8.44-7.65-13.44-4.43-15.5-5.79-8.44-5-8.44-15.31a19.89,19.89,0,0,1,8.14-16.39,28.05,28.05,0,0,1,17.77-6q19.52,0,24.92,18.35l-13.64,3.14a16.83,16.83,0,0,0-4.76-6.57c-1.8-1.38-4.4-2.06-7.8-2.06a10.48,10.48,0,0,0-6.08,2A6,6,0,0,0,157,220Q157,224.29,165.5,227.23Zm58.19,43.87a42.79,42.79,0,0,1-9.13.78q-16.68,0-16.68-12.07a63.41,63.41,0,0,1,2-14.72l3.63-14.32h-8.25l1.87-11.49H206l3.53-14.81,13.74-.5L220,219.28h12.37l-2,11.49H217.8l-2.45,12.16A70.11,70.11,0,0,0,214,255.2q0,3.54,2.94,4.42a29,29,0,0,0,5.89.39h1.27a6,6,0,0,0,1.57-.2Zm47.4-8.74Q263.73,272,252.25,272q-10.41,0-16.34-7T230,247.35a30.58,30.58,0,0,1,7.26-20.12Q245,218,256.08,218q9.81,0,15.89,6.92a24.57,24.57,0,0,1,6.09,16.83A32.3,32.3,0,0,1,271.09,262.36Zm32.09-22.57q-2.55,4.32-4.42,14.33l-3,16.49H280.51l9-51.52h14.33L302.1,229q3.24-6.57,6-8.54,3.33-2.55,10-2.55l-2.65,14.82A13.34,13.34,0,0,0,303.18,239.79Zm59.76,7.76H329.77l-.19,2.55a14.44,14.44,0,0,0,2,7.51,6.5,6.5,0,0,0,5.94,3.38q6.38,0,10.2-8.34l13,2.36q-3.72,8.53-9.66,12.65t-15.07,4.13a20,20,0,0,1-15.26-6.58,22.45,22.45,0,0,1-6.13-15.9q0-12.75,7.07-21.78a24.56,24.56,0,0,1,20.21-9.62q9.72,0,15.65,6.28t5.94,16A71.08,71.08,0,0,1,362.94,247.55Z"/></g></svg>