<svg id="Blocks" xmlns="http://www.w3.org/2000/svg" viewBox="0 0 500 500"><defs><style>.cls-1,.cls-2{fill:#e6e6e6;}.cls-1{stroke:#e6e6e6;stroke-miterlimit:10;stroke-width:10px;}</style></defs><title>Vimeo block 2</title><path class="cls-1" d="M97.33,114.38h52.06v17.35H114.67V357.4h34.72v17.34H97.33Z"/><path class="cls-1" d="M400.21,380H348.14V362.66h34.72V137H348.14V119.65h52.07Z"/><path class="cls-2" d="M206.65,182.51h83.93c.32.09.63.21.95.27,10.21,1.72,17.23,7.4,21,17a51.89,51.89,0,0,1,1.61,6.24V290c-.2,1-.39,2-.62,3-2.92,12.26-13.08,20.51-25.64,20.55q-39.27.11-78.54,0a24.74,24.74,0,0,1-13-3.51c-8.74-5.29-13.13-13.13-13.15-23.33q-.06-38.62,0-77.26c0-.68,0-1.36,0-2a26.1,26.1,0,0,1,17.11-23.2C202.33,183.43,204.52,183.05,206.65,182.51Zm49.26,45.79c1.78,0,3.44-.07,5.09,0,4,.18,6.31,2.08,6.74,5.66a18.71,18.71,0,0,1-.62,7.72,57,57,0,0,1-6.25,13,19.8,19.8,0,0,1-2.8,3.47c-2.31,2.37-5.09,2.44-7.44.14a16.29,16.29,0,0,1-2.79-3.61c-1.89-3.37-2.51-7.12-3.06-10.88-1-6.95-1.95-13.92-3.11-20.84a22.34,22.34,0,0,0-4.6-10.82,7.83,7.83,0,0,0-6.7-3.06,18,18,0,0,0-8.51,2.85c-7.76,4.68-14,11.28-20.94,17a1.14,1.14,0,0,0-.34,1,5.42,5.42,0,0,0,6.5,3.76c1.75-.38,3.45-1,5.2-1.33a4.14,4.14,0,0,1,5,2.17,19.52,19.52,0,0,1,1.88,4c1.87,5.92,3.69,11.86,5.41,17.83,1.94,6.75,3.66,13.56,5.69,20.28a24.64,24.64,0,0,0,4.83,8.94,10.32,10.32,0,0,0,10,3.88,24.45,24.45,0,0,0,9-3.45c8.54-5.25,15.2-12.49,21-20.48a144.27,144.27,0,0,0,19.14-36.4c1.46-4.06,2.78-8.17,2.47-12.57-.29-4.08-2.12-7.23-6-8.7a20.63,20.63,0,0,0-14.76-.11,33.36,33.36,0,0,0-16.36,13A26.5,26.5,0,0,0,255.91,228.3Z"/></svg>