<svg id="Blocks" xmlns="http://www.w3.org/2000/svg" viewBox="0 0 500 500"><defs><style>.cls-1,.cls-2{fill:#757575;}.cls-1{stroke:#757575;stroke-miterlimit:10;stroke-width:15.8px;}</style></defs><title>Vimeo block</title><path class="cls-1" d="M98.61,114.38h52.07v17.35H116V357.4h34.72v17.34H98.61Z"/><path class="cls-1" d="M401.49,380H349.43V362.66h34.72V137H349.43V119.65h52.06Z"/><path class="cls-2" d="M207.94,182.51h83.93c.32.09.63.21.95.27,10.21,1.72,17.23,7.4,21,17a51.92,51.92,0,0,1,1.62,6.24V290c-.21,1-.39,2-.62,3-2.92,12.26-13.08,20.51-25.64,20.55q-39.27.11-78.54,0A24.74,24.74,0,0,1,197.56,310c-8.74-5.29-13.13-13.13-13.15-23.33q-.06-38.62,0-77.26c0-.68,0-1.36,0-2a26.1,26.1,0,0,1,17.11-23.2C203.62,183.43,205.81,183.05,207.94,182.51ZM257.2,228.3c1.78,0,3.44-.07,5.09,0,4,.18,6.31,2.08,6.74,5.66a18.71,18.71,0,0,1-.63,7.72,57,57,0,0,1-6.25,13,19.3,19.3,0,0,1-2.79,3.47c-2.31,2.37-5.09,2.44-7.45.14a16,16,0,0,1-2.78-3.61c-1.89-3.37-2.51-7.12-3.06-10.88-1-6.95-1.95-13.92-3.11-20.84a22.43,22.43,0,0,0-4.6-10.82,7.83,7.83,0,0,0-6.7-3.06,17.94,17.94,0,0,0-8.51,2.85c-7.76,4.68-14,11.28-20.94,17a1.15,1.15,0,0,0-.35,1,5.43,5.43,0,0,0,6.51,3.76c1.75-.38,3.45-1,5.19-1.33a4.16,4.16,0,0,1,5,2.17,19.52,19.52,0,0,1,1.88,4c1.86,5.92,3.69,11.86,5.41,17.83,1.94,6.75,3.66,13.56,5.68,20.28a24.81,24.81,0,0,0,4.84,8.94,10.32,10.32,0,0,0,10,3.88,24.45,24.45,0,0,0,9-3.45c8.54-5.25,15.2-12.49,21-20.48a143.92,143.92,0,0,0,19.13-36.4C297,225,298.3,220.9,298,216.5c-.29-4.08-2.12-7.23-6.05-8.7a20.66,20.66,0,0,0-14.77-.11,33.38,33.38,0,0,0-16.35,13A26.5,26.5,0,0,0,257.2,228.3Z"/></svg>