<svg id="Blocks" xmlns="http://www.w3.org/2000/svg" viewBox="0 0 500 500"><defs><style>.cls-1,.cls-4{fill:#e6e6e6;}.cls-1,.cls-2{stroke:#e6e6e6;stroke-miterlimit:10;}.cls-1{stroke-width:10px;}.cls-2{fill:none;stroke-width:15px;}.cls-3{fill:#fff;}</style></defs><title>Lightbox block 2</title><path class="cls-1" d="M107.44,123.48h49.41v16.46H123.9V354.12h32.95v16.46H107.44Z"/><path class="cls-1" d="M394.9,375.58H345.48V359.12h33V144.94h-33V128.48H394.9Z"/><rect class="cls-2" x="201.02" y="205.97" width="99.37" height="100.72"/><circle class="cls-3" cx="299.03" cy="205.95" r="26.06"/><path class="cls-4" d="M299,185.26A20.69,20.69,0,1,0,319.72,206,20.69,20.69,0,0,0,299,185.26Zm6.79,32.41L299,210.89l-6.78,6.78-4.94-4.93L294.1,206l-6.79-6.78,4.94-4.94L299,201l6.79-6.79,4.93,4.94L304,206l6.78,6.79Z"/></svg>