<svg id="Blocks" xmlns="http://www.w3.org/2000/svg" viewBox="0 0 500 500"><defs><style>.cls-1,.cls-4{fill:#757575;}.cls-1,.cls-2{stroke:#757575;stroke-miterlimit:10;}.cls-1{stroke-width:10px;}.cls-2{fill:none;stroke-width:15px;}.cls-3{fill:#fff;}</style></defs><title>Lightbox block</title><path class="cls-1" d="M104.5,123.48h49.41v16.46H121V354.12h33v16.46H104.5Z"/><path class="cls-1" d="M392,375.58H342.55V359.12H375.5V144.94H342.55V128.48H392Z"/><rect class="cls-2" x="198.08" y="205.97" width="99.37" height="100.72"/><circle class="cls-3" cx="297.1" cy="204.95" r="26.06"/><path class="cls-4" d="M297.1,184.26A20.69,20.69,0,1,0,317.78,205,20.69,20.69,0,0,0,297.1,184.26Zm6.78,32.41-6.78-6.78-6.79,6.78-4.94-4.93,6.79-6.79-6.79-6.78,4.94-4.94L297.1,200l6.78-6.79,4.94,4.94L302,205l6.79,6.79Z"/></svg>