<svg xmlns="http://www.w3.org/2000/svg" viewBox="0 0 500 500"><defs><style>.cls-1,.cls-2,.cls-3{fill:#757575;}.cls-2,.cls-3,.cls-4{stroke:#757575;stroke-miterlimit:10;}.cls-2{stroke-width:0.62px;}.cls-3,.cls-4{stroke-width:6.12px;}.cls-4{fill:none;}</style></defs><title>Portfolio block</title><g id="Blocks"><polygon class="cls-1" points="284.88 278.06 211.44 277.72 211.36 262.43 239.19 239.25 284.88 278.06"/><ellipse class="cls-1" cx="269.83" cy="224.6" rx="12.33" ry="12.46"/><path class="cls-2" d="M195.93,193.68V303.76H302.8V193.68Zm95.59,91H207.21V204.34h84.31Z"/><polygon class="cls-1" points="166.95 278.06 93.51 277.72 93.43 262.43 121.26 239.25 166.95 278.06"/><ellipse class="cls-1" cx="151.89" cy="224.6" rx="12.33" ry="12.46"/><path class="cls-2" d="M78,193.68V303.76H184.87V193.68Zm95.59,91H89.28V204.34h84.31Z"/><polygon class="cls-1" points="402.81 278.06 329.37 277.72 329.29 262.43 357.12 239.25 402.81 278.06"/><ellipse class="cls-1" cx="387.76" cy="224.6" rx="12.33" ry="12.46"/><path class="cls-2" d="M313.86,193.68V303.76H420.73V193.68Zm95.59,91H325.14V204.34h84.31Z"/><rect class="cls-3" x="85.35" y="126.12" width="78.65" height="26.9"/><rect class="cls-4" x="175.89" y="126.12" width="78.65" height="26.9"/><rect class="cls-4" x="266.43" y="126.12" width="78.65" height="26.9"/></g></svg>