<svg id="Blocks" xmlns="http://www.w3.org/2000/svg" viewBox="0 0 500 500"><defs><style>.cls-1,.cls-2{fill:#e6e6e6;}.cls-2{stroke:#e6e6e6;stroke-miterlimit:10;stroke-width:10px;}</style></defs><title>Font awsome block 2</title><path class="cls-1" d="M195.51,244.18V202.93a11.65,11.65,0,0,1,10.35-11.08c1.55-.11,3.12-.18,4.68-.18q38.61,0,77.23,0c5.93,0,10.58,3.37,12.06,8.77a10.73,10.73,0,0,1,.38,2.7q0,41.13,0,82.27a11.68,11.68,0,0,1-10.31,11.14c-1.56.12-3.12.19-4.68.19H207.88c-5.85,0-10.48-3.36-12-8.72a11.56,11.56,0,0,1-.37-3Q195.5,264.57,195.51,244.18ZM228,264.84c2.94-1.08,5.75-2.22,8.62-3.16,7.66-2.5,15.21-2.53,22.67.94a18.15,18.15,0,0,0,9.73,1.69,42.83,42.83,0,0,0,13.76-4.1,2,2,0,0,0,1.24-2q0-19,0-37.94a2.16,2.16,0,0,0-3-2.15c-1.88.67-3.73,1.46-5.58,2.24-5,2.11-10,2.8-15.21.31a30.66,30.66,0,0,0-12.58-2.75,42.65,42.65,0,0,0-18.36,4.17c-.34.15-.7.28-1.23.5,0-1.5-.07-2.8,0-4.08a2.93,2.93,0,0,1,.72-1.71,8.83,8.83,0,0,0,2.74-8.14,9.06,9.06,0,1,0-15.24,8,2.63,2.63,0,0,1,.87,2.09c0,6.24,0,12.47,0,18.71,0,13.36,0,26.73,0,40.09a5.41,5.41,0,0,0,6.21,5.34,5.35,5.35,0,0,0,4.66-5.61C228,273.14,228,269.06,228,264.84Z"/><path class="cls-2" d="M107,123.15h49.42v16.46h-33V353.79h33v16.46H107Z"/><path class="cls-2" d="M394.47,375.25H345.06V358.79H378V144.61H345.06V128.15h49.41Z"/></svg>