<svg id="Blocks" xmlns="http://www.w3.org/2000/svg" viewBox="0 0 500 500"><defs><style>.cls-1,.cls-2{fill:#757575;}.cls-2{stroke:#757575;stroke-miterlimit:10;stroke-width:10px;}</style></defs><title>Font awsome block</title><path class="cls-1" d="M194.82,244.18q0-20.62,0-41.25a11.64,11.64,0,0,1,10.34-11.08c1.55-.11,3.12-.18,4.68-.18q38.61,0,77.23,0c5.94,0,10.58,3.37,12.06,8.77a10.29,10.29,0,0,1,.38,2.7q0,41.13,0,82.27a11.68,11.68,0,0,1-10.31,11.14c-1.56.12-3.12.19-4.68.19H207.19c-5.85,0-10.48-3.36-12-8.72a11.16,11.16,0,0,1-.38-3Q194.81,264.57,194.82,244.18Zm32.52,20.66c2.94-1.08,5.74-2.22,8.61-3.16,7.66-2.5,15.21-2.53,22.67.94a18.18,18.18,0,0,0,9.74,1.69,42.85,42.85,0,0,0,13.75-4.1,2,2,0,0,0,1.24-2c0-12.64,0-25.29,0-37.94a2.16,2.16,0,0,0-3-2.15c-1.89.67-3.74,1.46-5.59,2.24-5,2.11-10,2.8-15.21.31A30.66,30.66,0,0,0,247,217.9a42.65,42.65,0,0,0-18.36,4.17c-.34.15-.7.28-1.23.5,0-1.5-.07-2.8,0-4.08a2.88,2.88,0,0,1,.73-1.71,8.88,8.88,0,0,0,2.74-8.14,9.06,9.06,0,1,0-15.25,8,2.63,2.63,0,0,1,.87,2.09c0,6.24,0,12.47,0,18.71,0,13.36,0,26.73,0,40.09a5.41,5.41,0,0,0,6.21,5.34,5.35,5.35,0,0,0,4.66-5.61C227.35,273.14,227.34,269.06,227.34,264.84Z"/><path class="cls-2" d="M106.32,123.15h49.42v16.46H122.79V353.79h33v16.46H106.32Z"/><path class="cls-2" d="M393.78,375.25H344.37V358.79h32.95V144.61H344.37V128.15h49.41Z"/></svg>