<svg xmlns="http://www.w3.org/2000/svg" viewBox="0 0 803.81 803.81"><defs><style>.cls-1{fill:#fff;}.cls-2{opacity:0.95;}.cls-3{fill:#7f7f7f;}.cls-4{fill:#211e1f;}.cls-5{fill:#1e1e1e;}.cls-6{fill:#ccc;}.cls-7{opacity:0.5;}.cls-8{opacity:0.6;}</style></defs><title>Padma Dark</title><g id="Layer_5" data-name="Layer 5"><polygon class="cls-1" points="97.36 387.06 215.88 207.97 395.23 89 575.42 208.55 693.7 386.95 574.59 566.16 395.33 685.32 215.88 566.92 97.36 387.06"/><g class="cls-2"><polygon class="cls-3" points="693.67 386.95 575.42 208.55 395.41 207.59 574.96 387.09 693.67 386.95"/><polygon class="cls-4" points="485.95 298.02 396.14 387.77 574.96 387.09 485.95 298.02"/><polygon class="cls-5" points="574.96 387.09 693.71 386.95 574.96 295.17 574.96 387.09"/><polygon class="cls-5" points="632.74 295.34 575.42 208.55 574.96 295.3 632.74 295.34"/><polygon class="cls-5" points="574.96 295.31 395.41 207.59 485.95 298.02 574.96 295.31"/><polygon class="cls-5" points="693.7 386.95 574.59 566.16 395.43 566.42 485.27 476.7 574.96 387.09 693.7 386.95"/><polygon class="cls-6" points="574.96 387.09 693.7 386.95 574.77 478.63 574.96 387.09"/><polygon class="cls-6" points="632.04 479.73 574.59 566.16 574.77 478.64 632.04 479.73"/><polygon class="cls-6" points="574.77 478.64 395.43 566.42 485.27 476.7 574.77 478.64"/><polygon class="cls-5" points="485.27 476.7 396.14 387.77 395.43 566.42 485.27 476.7"/><polygon class="cls-3" points="97.38 387.06 215.88 566.92 395.43 566.42 215.88 387.06 97.38 387.06"/><polygon class="cls-4" points="306.31 477.41 396.14 387.77 215.88 387.06 306.31 477.41"/><polygon class="cls-5" points="215.88 387.06 97.34 387.06 215.89 478.85 215.88 387.06"/><polygon class="cls-5" points="157.85 478.85 215.88 566.92 215.89 478.85 157.85 478.85"/><polygon class="cls-5" points="215.89 478.85 395.43 566.42 306.31 477.56 215.89 478.85"/><polygon class="cls-5" points="97.36 387.06 216.13 207.82 395.41 207.59 305.6 297.28 215.88 387.06 97.36 387.06"/><polygon class="cls-6" points="215.88 387.06 97.36 387.06 216.13 295.37 215.88 387.06"/><polygon class="cls-6" points="159.34 294.29 216.13 207.82 216.13 295.37 159.34 294.29"/><polygon class="cls-6" points="216.13 295.37 395.41 207.59 305.6 297.28 216.13 295.37"/><polygon class="cls-5" points="305.6 297.28 396.14 387.77 395.41 207.59 305.6 297.28"/></g><g class="cls-7"><polygon class="cls-3" points="395.33 685.29 574.59 566.16 574.96 387.09 395.43 566.56 395.33 685.29"/><polygon class="cls-4" points="485.03 476.85 396.14 387.77 395.43 566.56 485.03 476.85"/><polygon class="cls-5" points="395.43 566.56 395.33 685.33 487.12 566.26 395.43 566.56"/><polygon class="cls-5" points="486.95 624.36 574.59 566.16 487.12 566.31 486.95 624.36"/><polygon class="cls-5" points="487.12 566.26 574.96 387.09 485.03 476.85 487.12 566.26"/><polygon class="cls-5" points="395.33 685.32 215.88 566.92 215.88 387.06 306.31 477.41 395.43 566.56 395.33 685.32"/><polygon class="cls-6" points="395.43 566.56 395.33 685.32 303.64 566.7 395.43 566.56"/><polygon class="cls-6" points="302.56 624.25 215.88 566.92 303.64 566.7 302.56 624.25"/><polygon class="cls-6" points="303.64 566.7 215.88 387.06 306.31 477.41 303.64 566.7"/><polygon class="cls-5" points="306.31 477.41 396.14 387.77 215.88 387.06 306.31 477.41"/><polygon class="cls-3" points="395.23 89 215.88 207.97 215.88 387.06 395.41 207.59 395.23 89"/><polygon class="cls-4" points="305.6 297.28 396.14 387.77 395.41 207.59 305.6 297.28"/><polygon class="cls-5" points="395.41 207.59 395.23 89 303.58 207.72 395.41 207.59"/><polygon class="cls-5" points="303.61 149.93 215.88 207.97 303.58 207.72 303.61 149.93"/><polygon class="cls-5" points="303.58 207.75 215.88 387.06 305.6 297.28 303.58 207.75"/><polygon class="cls-5" points="395.23 89 575.42 208.55 574.96 387.09 485.95 298.02 395.41 207.59 395.23 89"/><polygon class="cls-6" points="395.41 207.59 395.23 89 486.92 208.08 395.41 207.59"/><polygon class="cls-6" points="488 150.96 575.42 208.55 486.92 208.08 488 150.96"/><polygon class="cls-6" points="486.92 208.08 574.96 387.09 485.95 298.02 486.92 208.08"/><polygon class="cls-5" points="485.95 298.02 396.14 387.77 574.96 387.09 485.95 298.02"/></g></g></svg>