<svg xmlns="http://www.w3.org/2000/svg" viewBox="0 0 500 500"><defs><style>.cls-1{fill:#e6e6e6;}</style></defs><title>Store block 2</title><g id="Blocks"><path class="cls-1" d="M254,228.12q-5.79,0-8.73,9.42a46.83,46.83,0,0,0-2.06,14.32q0,10.11,6.67,10.11,5.9,0,8.93-9.32A46.53,46.53,0,0,0,261,238.42a15,15,0,0,0-1.47-6.77A5.79,5.79,0,0,0,254,228.12Z"/><path class="cls-1" d="M340,227.33q-3.84,0-6.87,4a22.1,22.1,0,0,0-3.73,7.46h18.25l.1-1.67a12.24,12.24,0,0,0-2-6.82A6.49,6.49,0,0,0,340,227.33Z"/><path class="cls-1" d="M363.58,166.08H131.2a26.5,26.5,0,0,0-26.5,26.61V281.4A26.61,26.61,0,0,0,131.31,308H241.38l50.3,28-11.44-28h83.34a26.61,26.61,0,0,0,26.61-26.61V192.69A26.61,26.61,0,0,0,363.58,166.08Zm-200,61.15q13.05,4.32,15.8,6.09,8.44,5.2,8.44,15.8a20.35,20.35,0,0,1-8.63,17.07Q171.4,272,160.4,272q-10.4,0-17.66-4.41-7.86-4.9-10.21-14.72a6,6,0,0,0-.49-2.06L146.37,249q2.65,10.2,14.23,10.2a14.07,14.07,0,0,0,7.46-1.86,6.89,6.89,0,0,0,3.63-6.28q0-4.91-8.44-7.65-13.45-4.43-15.51-5.79-8.43-5-8.44-15.31a19.9,19.9,0,0,1,8.15-16.39,28,28,0,0,1,17.76-6q19.53,0,24.93,18.35l-13.64,3.14a16.93,16.93,0,0,0-4.76-6.57c-1.8-1.38-4.4-2.06-7.8-2.06a10.53,10.53,0,0,0-6.09,2A6,6,0,0,0,155,220Q155,224.29,163.54,227.23Zm58.2,43.87a42.85,42.85,0,0,1-9.13.78q-16.68,0-16.68-12.07a63.35,63.35,0,0,1,2-14.72l3.63-14.32h-8.24l1.86-11.49h8.93l3.53-14.81,13.74-.5L218,219.28h12.36l-2,11.49H215.85l-2.46,12.16A71.09,71.09,0,0,0,212,255.2q0,3.54,2.94,4.42a29,29,0,0,0,5.89.39h1.28a6.09,6.09,0,0,0,1.57-.2Zm47.39-8.74Q261.78,272,250.29,272q-10.39,0-16.34-7T228,247.35a30.58,30.58,0,0,1,7.26-20.12Q243,218,254.12,218a20.15,20.15,0,0,1,15.9,6.92,24.61,24.61,0,0,1,6.08,16.83A32.24,32.24,0,0,1,269.13,262.36Zm32.09-22.57q-2.55,4.32-4.41,14.33l-3,16.49H278.55l9-51.52h14.33L300.14,229q3.24-6.57,6-8.54,3.33-2.55,10-2.55l-2.65,14.82A13.34,13.34,0,0,0,301.22,239.79ZM361,247.55H327.82l-.2,2.55a14.44,14.44,0,0,0,2,7.51,6.5,6.5,0,0,0,5.94,3.38q6.38,0,10.21-8.34L358.83,255q-3.74,8.53-9.67,12.65t-15.06,4.13a20,20,0,0,1-15.26-6.58,22.46,22.46,0,0,1-6.14-15.9q0-12.75,7.07-21.78A24.57,24.57,0,0,1,340,217.91q9.7,0,15.65,6.28t5.94,16A71.08,71.08,0,0,1,361,247.55Z"/></g></svg>