<svg id="Blocks" xmlns="http://www.w3.org/2000/svg" viewBox="0 0 500 500"><defs><style>.cls-1,.cls-2{fill:#757575;}.cls-1{stroke:#757575;stroke-miterlimit:10;stroke-width:15.8px;}</style></defs><title>Dummy Text block</title><path class="cls-1" d="M96.46,111.32h52.18v17.34h-34.8V354.33h34.8v17.35H96.46Z"/><path class="cls-1" d="M400,376.94H347.82V359.6h34.8V133.93h-34.8V116.59H400Z"/><g id="Fonts"><path class="cls-2" d="M201.61,287.78l10.6-1.95a4.09,4.09,0,0,0,2.42-1.47,4.26,4.26,0,0,0,1-2.78V197.23h-23a2.69,2.69,0,0,0-2.09.72,5,5,0,0,0-1,1.81l-5.19,15.93h-3.82V191.83H263.9v23.86h-3.82l-5.19-15.93a5.28,5.28,0,0,0-1-1.81,2.48,2.48,0,0,0-2-.72H228.58v84.35a4.08,4.08,0,0,0,1,2.81,4.28,4.28,0,0,0,2.45,1.44l10.6,1.95v3.39h-41Z"/></g><g id="Fonts-2" data-name="Fonts"><path class="cls-2" d="M282.42,289l6.73-1.24a2.57,2.57,0,0,0,1.53-.93,2.73,2.73,0,0,0,.62-1.77V231.56H276.71a1.67,1.67,0,0,0-1.33.46,3,3,0,0,0-.64,1.14l-3.3,10.11H269V228.13H322v15.14h-2.43l-3.29-10.11a3.27,3.27,0,0,0-.62-1.14,1.55,1.55,0,0,0-1.25-.46H299.53v53.52a2.65,2.65,0,0,0,.64,1.79,2.73,2.73,0,0,0,1.56.91l6.72,1.24v2.15h-26Z"/></g></svg>