<svg id="Blocks" xmlns="http://www.w3.org/2000/svg" viewBox="0 0 500 500"><defs><style>.cls-1,.cls-2{fill:#e6e6e6;}.cls-1{stroke:#e6e6e6;stroke-miterlimit:10;stroke-width:10px;}</style></defs><title>Dummy Text block 2</title><path class="cls-1" d="M105.36,124.43h49.41v16.46h-33V355.07h33v16.46H105.36Z"/><path class="cls-1" d="M392.82,376.53H343.4V360.07h33V145.89h-33V129.43h49.42Z"/><g id="Fonts"><path class="cls-2" d="M206.29,287.78l10.6-1.95a4.09,4.09,0,0,0,2.42-1.47,4.26,4.26,0,0,0,1-2.78V197.23h-23a2.69,2.69,0,0,0-2.09.72,5,5,0,0,0-1,1.81L189,215.69h-3.82V191.83h83.41v23.86h-3.82l-5.19-15.93a5.46,5.46,0,0,0-1-1.81,2.48,2.48,0,0,0-2-.72H233.26v84.35a4.08,4.08,0,0,0,1,2.81,4.28,4.28,0,0,0,2.45,1.44l10.59,1.95v3.39h-41Z"/></g><g id="Fonts-2" data-name="Fonts"><path class="cls-2" d="M287.1,289l6.73-1.24a2.57,2.57,0,0,0,1.53-.93,2.73,2.73,0,0,0,.62-1.77V231.56H281.39a1.67,1.67,0,0,0-1.33.46,3,3,0,0,0-.64,1.14l-3.3,10.11H273.7V228.13h52.93v15.14H324.2l-3.29-10.11a3.27,3.27,0,0,0-.62-1.14,1.56,1.56,0,0,0-1.26-.46H304.21v53.52a2.65,2.65,0,0,0,.64,1.79,2.73,2.73,0,0,0,1.56.91l6.72,1.24v2.15h-26Z"/></g></svg>