<svg id="Blocks" xmlns="http://www.w3.org/2000/svg" viewBox="0 0 500 500"><defs><style>.cls-1,.cls-2{fill:#757575;}.cls-1{stroke:#757575;stroke-miterlimit:10;stroke-width:10px;}</style></defs><title>Content to accordion block</title><path class="cls-1" d="M106.32,123.34h49.42V139.8H122.79V354h33v16.46H106.32Z"/><path class="cls-1" d="M393.78,375.44H344.37V359h32.95V144.8H344.37V128.34h49.41Z"/><path class="cls-2" d="M318,177.14H186.11V318.08H318ZM198.05,306.87V188.35H307.27V306.87Z"/><path class="cls-2" d="M207.71,199.65V242.8h88.66V199.65Zm81.57,34.57H214.8v-26h74.48Z"/><rect class="cls-2" x="218.53" y="219.51" width="12.84" height="3.42"/><path class="cls-2" d="M207.71,250.89v19.2h88.66v-19.2ZM225,262.2h-4.71v4.71h-3.43V262.2H212.1v-3.42h4.71v-4.71h3.43v4.71H225Z"/><path class="cls-2" d="M207.71,277.58v19.19h88.66V277.58ZM225,288.89h-4.71v4.71h-3.43v-4.71H212.1v-3.43h4.71v-4.71h3.43v4.71H225Z"/></svg>