<svg id="Blocks" xmlns="http://www.w3.org/2000/svg" viewBox="0 0 500 500"><defs><style>.cls-1,.cls-2{fill:#e6e6e6;}.cls-1{stroke:#e6e6e6;stroke-miterlimit:10;stroke-width:10px;}</style></defs><title>Content to accordion block 2</title><path class="cls-1" d="M105.79,123.34H155.2V139.8H122.25V354H155.2v16.46H105.79Z"/><path class="cls-1" d="M393.25,375.44H343.83V359h33V144.8h-33V128.34h49.42Z"/><path class="cls-2" d="M317.44,177.14H185.57V318.08H317.44ZM197.51,306.87V188.35H306.74V306.87Z"/><path class="cls-2" d="M207.18,199.65V242.8h88.65V199.65Zm81.56,34.57H214.27v-26h74.47Z"/><rect class="cls-2" x="217.99" y="219.51" width="12.84" height="3.42"/><path class="cls-2" d="M207.18,250.89v19.2h88.65v-19.2Zm17.23,11.31H219.7v4.71h-3.42V262.2h-4.71v-3.42h4.71v-4.71h3.42v4.71h4.71Z"/><path class="cls-2" d="M207.18,277.58v19.19h88.65V277.58Zm17.23,11.31H219.7v4.71h-3.42v-4.71h-4.71v-3.43h4.71v-4.71h3.42v4.71h4.71Z"/></svg>