<svg id="Blocks" xmlns="http://www.w3.org/2000/svg" viewBox="0 0 500 500"><defs><style>.cls-1,.cls-2{fill:#757575;}.cls-1{stroke:#757575;stroke-miterlimit:10;stroke-width:10px;}</style></defs><title>Google maps block</title><path class="cls-1" d="M106.32,121.35h49.42v16.46H122.79V352h33v16.46H106.32Z"/><path class="cls-1" d="M393.78,373.45H344.37V357h32.95V142.81H344.37V126.35h49.41Z"/><path class="cls-2" d="M282.59,280.72l24.37-32v1.65q0,23.32,0,46.65c0,9.16-5.88,15-15.08,15-5.73,0-11.46,0-17.19,0a3.15,3.15,0,0,1-2-.77Q246.34,284.91,220,258.55c-.19-.19-.35-.41-.42-.48l28.24-28.24C256,248.77,269.84,264.11,282.59,280.72Z"/><path class="cls-2" d="M282.41,270.05c-9.7-12.79-19.84-25-26.6-39.44a45.58,45.58,0,0,1-4.76-20.36c.31-15.84,13-29.63,28.38-30.84A31.51,31.51,0,0,1,313.32,205c1.53,8.14-.08,15.82-3.19,23.3-3.75,9-9.19,17.06-14.91,24.91-3.86,5.29-7.87,10.46-11.82,15.68C283.15,269.24,282.85,269.54,282.41,270.05Zm.11-45.4a14,14,0,1,0-14-13.87A14,14,0,0,0,282.52,224.65Z"/><path class="cls-2" d="M247.88,193.28c-.92,2.75-2,5.37-2.67,8.09a42.94,42.94,0,0,0-.18,19.14,2.39,2.39,0,0,1-.68,2.46q-27.53,27.45-55,55c-.29.29-.61.56-1.17,1.07V208c0-8.85,5.91-14.8,14.76-14.82q21.76,0,43.54,0C247,193.22,247.43,193.26,247.88,193.28Z"/><path class="cls-2" d="M214.33,263l48.9,48.88A10.79,10.79,0,0,1,262,312q-29.87,0-59.74,0a13.9,13.9,0,0,1-14.09-14.14c0-2.56,0-5.13,0-7.69a2.73,2.73,0,0,1,.6-1.73q12.57-12.66,25.22-25.24A1.56,1.56,0,0,1,214.33,263Z"/></svg>