<svg id="Blocks" xmlns="http://www.w3.org/2000/svg" viewBox="0 0 500 500"><defs><style>.cls-1,.cls-2{fill:#e6e6e6;}.cls-1{stroke:#e6e6e6;stroke-miterlimit:10;stroke-width:10px;}</style></defs><title>Google maps block 2</title><path class="cls-1" d="M106,121.35h49.41v16.46h-33V352h33v16.46H106Z"/><path class="cls-1" d="M393.41,373.45H344V357H377V142.81H344V126.35h49.41Z"/><path class="cls-2" d="M282.22,280.72l24.37-32v1.65q0,23.32,0,46.65c0,9.16-5.88,15-15.07,15-5.73,0-11.46,0-17.19,0a3.13,3.13,0,0,1-2-.77Q246,284.91,219.65,258.55c-.19-.19-.36-.41-.42-.48l28.24-28.24C255.65,248.77,269.47,264.11,282.22,280.72Z"/><path class="cls-2" d="M282,270.05c-9.69-12.79-19.83-25-26.6-39.44a45.57,45.57,0,0,1-4.75-20.36c.3-15.84,13-29.63,28.38-30.84A31.51,31.51,0,0,1,313,205c1.53,8.14-.08,15.82-3.19,23.3-3.76,9-9.19,17.06-14.92,24.91C291,258.51,287,263.68,283,268.9,282.78,269.24,282.48,269.54,282,270.05Zm.12-45.4a14,14,0,1,0-14-13.87A14,14,0,0,0,282.15,224.65Z"/><path class="cls-2" d="M247.5,193.28c-.92,2.75-2,5.37-2.67,8.09a42.94,42.94,0,0,0-.17,19.14A2.38,2.38,0,0,1,244,223q-27.53,27.45-55,55c-.3.29-.61.56-1.18,1.07v-1.87q0-34.55,0-69.08c0-8.85,5.9-14.8,14.75-14.82q21.78,0,43.54,0C246.58,193.22,247.05,193.26,247.5,193.28Z"/><path class="cls-2" d="M214,263l48.91,48.88a11,11,0,0,1-1.22.13q-29.87,0-59.74,0a13.9,13.9,0,0,1-14.09-14.14c0-2.56,0-5.13,0-7.69a2.74,2.74,0,0,1,.61-1.73q12.57-12.66,25.21-25.24A2,2,0,0,1,214,263Z"/></svg>