<svg id="Blocks" xmlns="http://www.w3.org/2000/svg" viewBox="0 0 500 500"><defs><style>.cls-1,.cls-2{fill:#757575;}.cls-1{stroke:#757575;stroke-miterlimit:10;stroke-width:10px;}</style></defs><title>Post block</title><path class="cls-1" d="M104.5,123.65h49.41v16.46H121V354.29h33v16.46H104.5Z"/><path class="cls-1" d="M392,375.75H342.55V359.29H375.5V145.11H342.55V128.65H392Z"/><path class="cls-2" d="M210,208.07v15.49L175.6,242.45l34.34,18.89.05,15.42-48.75-28.14V236.14Z"/><path class="cls-2" d="M290.84,276.76V261.27l34.45-18.89L290.9,223.43l-.06-15.36,48.76,28.14v12.48Z"/><path class="cls-2" d="M210.43,229.91h9.77a11,11,0,0,1,6.54,1.75,7,7,0,0,1,2.77,6v.66c-.07.35-.12.62-.14.81a6.85,6.85,0,0,1-2.7,4.86,7.48,7.48,0,0,1-2.1,1.09,8.4,8.4,0,0,1-2.69.38l-5.67,0v9.17h-5.78Zm9.73,11.17a3.63,3.63,0,0,0,2.58-1,3.31,3.31,0,0,0,1.06-2.54,2.91,2.91,0,0,0-1.22-2.48,4.73,4.73,0,0,0-2.77-.74h-3.67v6.76Z"/><path class="cls-2" d="M239.62,229.49a9.94,9.94,0,0,1,8.33,3.85,14.56,14.56,0,0,1,2.66,9.07A14.8,14.8,0,0,1,248,251.3a9.52,9.52,0,0,1-8.09,3.95,9.16,9.16,0,0,1-7.84-4.13,16.37,16.37,0,0,1,0-17.5A8.83,8.83,0,0,1,239.62,229.49Zm.42,20.9q4.38,0,4.38-8t-4.24-8.08q-4.52,0-4.51,7.8Q235.67,250.39,240,250.39Z"/><path class="cls-2" d="M256.35,247.06q.84,3.47,5.39,3.47a5.12,5.12,0,0,0,2.49-.63,2.26,2.26,0,0,0,1.33-2c0-1.17-1.15-2-3.43-2.63a36.82,36.82,0,0,1-6.41-1.92,6.14,6.14,0,0,1-3.43-5.88,7.31,7.31,0,0,1,2.84-5.92,9.86,9.86,0,0,1,6.37-2.13c4.24,0,7.34,2,9.27,6l-4.93,1.68a4.67,4.67,0,0,0-4.59-3.08q-3.15,0-3.15,2.49c0,1.12,1.15,2,3.43,2.52a41,41,0,0,1,6.34,1.89A6.45,6.45,0,0,1,271.3,247a7.27,7.27,0,0,1-3.08,6.23,11.33,11.33,0,0,1-6.86,2,12.35,12.35,0,0,1-6.51-1.5,9.84,9.84,0,0,1-3.82-5.32Z"/><path class="cls-2" d="M271.44,230h18.27v4.86h-6.2v19.81H277.7V234.92h-6.26Z"/></svg>