<svg id="Blocks" xmlns="http://www.w3.org/2000/svg" viewBox="0 0 500 500"><defs><style>.cls-1,.cls-2{fill:#e6e6e6;}.cls-1{stroke:#e6e6e6;stroke-miterlimit:10;stroke-width:15.8px;}</style></defs><title>Post block 2</title><path class="cls-1" d="M105.79,123.65H155.2v16.46H122.25V354.29H155.2v16.46H105.79Z"/><path class="cls-1" d="M393.25,375.75H343.83V359.29h33V145.11h-33V128.65h49.42Z"/><path class="cls-2" d="M211.28,208.07v15.49l-34.39,18.89,34.34,18.89.05,15.42-48.76-28.14V236.14Z"/><path class="cls-2" d="M292.13,276.76V261.27l34.45-18.89-34.39-18.95-.06-15.36,48.76,28.14v12.48Z"/><path class="cls-2" d="M211.72,229.91h9.77a11,11,0,0,1,6.54,1.75,7,7,0,0,1,2.77,6v.66c-.07.35-.12.62-.14.81A6.85,6.85,0,0,1,228,244a7.48,7.48,0,0,1-2.1,1.09,8.44,8.44,0,0,1-2.69.38l-5.67,0v9.17h-5.78Zm9.73,11.17a3.63,3.63,0,0,0,2.58-1,3.31,3.31,0,0,0,1.06-2.54,2.94,2.94,0,0,0-1.22-2.48,4.73,4.73,0,0,0-2.77-.74h-3.67v6.76Z"/><path class="cls-2" d="M240.91,229.49a9.94,9.94,0,0,1,8.33,3.85,14.62,14.62,0,0,1,2.66,9.07,14.8,14.8,0,0,1-2.62,8.89,9.52,9.52,0,0,1-8.09,3.95,9.16,9.16,0,0,1-7.84-4.13,16.37,16.37,0,0,1,0-17.5A8.83,8.83,0,0,1,240.91,229.49Zm.42,20.9q4.38,0,4.38-8t-4.24-8.08q-4.51,0-4.51,7.8Q237,250.39,241.33,250.39Z"/><path class="cls-2" d="M257.64,247.06q.84,3.47,5.39,3.47a5.12,5.12,0,0,0,2.49-.63,2.26,2.26,0,0,0,1.33-2c0-1.17-1.15-2-3.43-2.63a36.82,36.82,0,0,1-6.41-1.92,6.12,6.12,0,0,1-3.43-5.88,7.31,7.31,0,0,1,2.84-5.92,9.86,9.86,0,0,1,6.37-2.13c4.24,0,7.34,2,9.27,6l-4.93,1.68a4.67,4.67,0,0,0-4.59-3.08q-3.15,0-3.15,2.49c0,1.12,1.15,2,3.43,2.52a41,41,0,0,1,6.34,1.89,6.45,6.45,0,0,1,3.43,6.09,7.27,7.27,0,0,1-3.08,6.23,11.33,11.33,0,0,1-6.86,2,12.35,12.35,0,0,1-6.51-1.5,9.79,9.79,0,0,1-3.82-5.32Z"/><path class="cls-2" d="M272.73,230H291v4.86h-6.2v19.81H279V234.92h-6.26Z"/></svg>