<svg xmlns="http://www.w3.org/2000/svg" viewBox="0 0 500 500"><defs><style>.cls-1,.cls-2,.cls-3{fill:#e6e6e6;}.cls-1,.cls-2,.cls-3,.cls-4{stroke:#e6e6e6;stroke-miterlimit:10;}.cls-2{stroke-width:0.62px;}.cls-3,.cls-4{stroke-width:6.12px;}.cls-4{fill:none;}</style></defs><title>Portfolio block 2</title><g id="Blocks"><polygon class="cls-1" points="285.58 278.06 212.14 277.72 212.06 262.43 239.89 239.25 285.58 278.06"/><ellipse class="cls-1" cx="270.53" cy="224.6" rx="12.33" ry="12.46"/><path class="cls-2" d="M196.63,193.68V303.76H303.5V193.68Zm95.59,91H207.91V204.34h84.31Z"/><polygon class="cls-1" points="167.65 278.06 94.21 277.72 94.13 262.43 121.96 239.25 167.65 278.06"/><ellipse class="cls-1" cx="152.6" cy="224.6" rx="12.33" ry="12.46"/><path class="cls-2" d="M78.7,193.68V303.76H185.57V193.68Zm95.59,91H90V204.34h84.31Z"/><polygon class="cls-1" points="403.51 278.06 330.07 277.72 330 262.43 357.82 239.25 403.51 278.06"/><ellipse class="cls-1" cx="388.46" cy="224.6" rx="12.33" ry="12.46"/><path class="cls-2" d="M314.57,193.68V303.76H421.43V193.68Zm95.58,91H325.84V204.34h84.31Z"/><rect class="cls-3" x="86.05" y="126.12" width="78.65" height="26.9"/><rect class="cls-4" x="176.59" y="126.12" width="78.65" height="26.9"/><rect class="cls-4" x="267.13" y="126.12" width="78.65" height="26.9"/></g></svg>