<svg id="Blocks" xmlns="http://www.w3.org/2000/svg" viewBox="0 0 500 500"><defs><style>.cls-1,.cls-2{fill:#e6e6e6;}.cls-1{stroke:#e6e6e6;stroke-miterlimit:10;stroke-width:10px;}</style></defs><title>Box block 2</title><path class="cls-1" d="M103.08,123.65h49.41v16.46H119.54V354.29h33v16.46H103.08Z"/><path class="cls-1" d="M390.54,375.75H341.12V359.29h33V145.11h-33V128.65h49.42Z"/><path class="cls-2" d="M214.86,207.84a1.42,1.42,0,0,0,1.42-1.08,6.76,6.76,0,0,0,.21-2q0-3.09-1.62-3.09a1.34,1.34,0,0,0-1.31,1.11,7.06,7.06,0,0,0-.2,1.91Q213.36,207.84,214.86,207.84Z"/><path class="cls-2" d="M204.69,200.4c0-.93-.72-1.4-2.16-1.4h-2v2.9h2.14Q204.69,201.9,204.69,200.4Z"/><path class="cls-2" d="M186.42,189.68V300H299.81V189.68Zm35.42,10.4H225l1.55,2.7c.12-.29.31-.66.56-1.13s.56-1,.94-1.59h2.37l-2.72,4.32,3.21,5.11-3.22,0-1-1.73a15.24,15.24,0,0,1-.9-1.82,14.75,14.75,0,0,1-.92,1.79l-1,1.74H221.3l3.2-5.06Zm-10.22,1.19a4.59,4.59,0,0,1,6.67,0,5.25,5.25,0,0,1,1.16,3.51,4.86,4.86,0,0,1-1.31,3.55,4.73,4.73,0,0,1-3.52,1.33,3.8,3.8,0,0,1-3.11-1.55,5.29,5.29,0,0,1-1.12-3.38A5.11,5.11,0,0,1,211.62,201.27Zm-14.06-4.47H203q4.72,0,4.73,3.19a2.58,2.58,0,0,1-.63,1.87,12.66,12.66,0,0,1-1.69,1.1,3,3,0,0,1,2.68,3.18q0,3.38-5,3.37h-5.51Zm90.92,90.07H197.76V215.21h90.72Z"/><path class="cls-2" d="M204.94,205.62a1.35,1.35,0,0,0-.52-1.08,1.73,1.73,0,0,0-1.19-.43h-2.7v3.13h2.05C204.15,207.24,204.94,206.7,204.94,205.62Z"/></svg>