<svg id="Blocks" xmlns="http://www.w3.org/2000/svg" viewBox="0 0 500 500"><defs><style>.cls-1,.cls-2{fill:#757575;}.cls-1{stroke:#757575;stroke-miterlimit:10;stroke-width:10px;}</style></defs><title>Box block</title><path class="cls-1" d="M106.32,123.65h49.42v16.46H122.79V354.29h33v16.46H106.32Z"/><path class="cls-1" d="M393.78,375.75H344.37V359.29h32.95V145.11H344.37V128.65h49.41Z"/><path class="cls-2" d="M218.1,207.84a1.41,1.41,0,0,0,1.42-1.08,6.36,6.36,0,0,0,.22-2q0-3.09-1.62-3.09a1.34,1.34,0,0,0-1.32,1.11,7.14,7.14,0,0,0-.19,1.91C216.61,206.8,217.1,207.84,218.1,207.84Z"/><path class="cls-2" d="M207.93,200.4c0-.93-.72-1.4-2.16-1.4h-2v2.9h2.15C207.25,201.9,207.93,201.4,207.93,200.4Z"/><path class="cls-2" d="M189.67,189.68V300H303.06V189.68Zm35.41,10.4h3.12l1.55,2.7c.12-.29.3-.66.55-1.13s.57-1,.94-1.59h2.38l-2.72,4.32,3.2,5.11-3.22,0-1-1.73a12.71,12.71,0,0,1-.9-1.82,16.36,16.36,0,0,1-.92,1.79l-1,1.74h-2.49l3.21-5.06Zm-10.22,1.19a4.6,4.6,0,0,1,6.68,0,5.24,5.24,0,0,1,1.15,3.51,4.85,4.85,0,0,1-1.3,3.55,4.74,4.74,0,0,1-3.52,1.33,3.83,3.83,0,0,1-3.12-1.55,5.34,5.34,0,0,1-1.11-3.38A5.11,5.11,0,0,1,214.86,201.27ZM200.8,196.8h5.42c3.16,0,4.73,1.06,4.73,3.19a2.62,2.62,0,0,1-.62,1.87,13.11,13.11,0,0,1-1.7,1.1,3.18,3.18,0,0,1,2,1,3.14,3.14,0,0,1,.71,2.14c0,2.25-1.66,3.37-5,3.37H200.8Zm90.92,90.07H201V215.21h90.72Z"/><path class="cls-2" d="M208.18,205.62a1.32,1.32,0,0,0-.52-1.08,1.71,1.71,0,0,0-1.19-.43h-2.7v3.13h2.06C207.4,207.24,208.18,206.7,208.18,205.62Z"/></svg>