<svg id="Blocks" xmlns="http://www.w3.org/2000/svg" viewBox="0 0 500 500"><defs><style>.cls-1,.cls-2{fill:#e6e6e6;}.cls-1{stroke:#e6e6e6;stroke-miterlimit:10;stroke-width:10px;}</style></defs><title>Columns block 2_1</title><path class="cls-1" d="M106.34,121.41h49.42v16.46h-33V352h33v16.47H106.34Z"/><path class="cls-1" d="M393.8,373.51H344.39V357h32.95V142.87H344.39V126.41H393.8Z"/><path class="cls-2" d="M246.36,182.61a64,64,0,1,0,64,64A64,64,0,0,0,246.36,182.61Zm26.86,97-15.92,0,0-6.31c0,.65-2.71,2.35-3.24,2.73a19.4,19.4,0,0,1-4.08,2.27,26.13,26.13,0,0,1-16.82.63,30.2,30.2,0,0,1-8.35-4.3c-8.49-6-12.22-17.42-11-27.45a27.62,27.62,0,0,1,2.11-7.44,28.3,28.3,0,0,1,7.66-9.84,29.63,29.63,0,0,1,14.66-6.51c12.24-1.88,18.41,6.7,18.41,6.7v-24l16.54-3.53Z"/><circle class="cls-2" cx="243.64" cy="251.52" r="13.87" transform="translate(-51.27 62.71) rotate(-13.28)"/></svg>