<svg id="Blocks" xmlns="http://www.w3.org/2000/svg" viewBox="0 0 500 500"><defs><style>.cls-1,.cls-2{fill:#757575;}.cls-1{stroke:#757575;stroke-miterlimit:10;stroke-width:10px;}</style></defs><title>Button block</title><path class="cls-1" d="M106.32,115h49.42v16.46H122.79V345.6h33v16.46H106.32Z"/><path class="cls-1" d="M393.78,367.06H344.37V350.6h32.95V136.42H344.37V120h49.41Z"/><path class="cls-2" d="M308.51,208.9H190.84a12,12,0,0,0-12,12v30.31a12,12,0,0,0,12,12H308.51a12,12,0,0,0,12-12V220.9A12,12,0,0,0,308.51,208.9Zm2.09,31a8.83,8.83,0,0,1-8.8,8.8H197.55a8.83,8.83,0,0,1-8.8-8.8V225.82a8.83,8.83,0,0,1,8.8-8.8H301.8a8.83,8.83,0,0,1,8.8,8.8Z"/></svg>