<svg id="Blocks" xmlns="http://www.w3.org/2000/svg" viewBox="0 0 500 500"><defs><style>.cls-1,.cls-2{fill:#e6e6e6;}.cls-1{stroke:#e6e6e6;stroke-miterlimit:10;stroke-width:10px;}</style></defs><title>Button block 2</title><path class="cls-1" d="M106.07,115h49.42v16.46H122.54V345.6h33v16.46H106.07Z"/><path class="cls-1" d="M393.53,367.06H344.12V350.6h32.95V136.42H344.12V120h49.41Z"/><path class="cls-2" d="M308.26,208.9H190.59a12,12,0,0,0-12,12v30.31a12,12,0,0,0,12,12H308.26a12,12,0,0,0,12-12V220.9A12,12,0,0,0,308.26,208.9Zm2.1,31a8.83,8.83,0,0,1-8.81,8.8H197.3a8.83,8.83,0,0,1-8.8-8.8V225.82a8.83,8.83,0,0,1,8.8-8.8H301.55a8.83,8.83,0,0,1,8.81,8.8Z"/></svg>