<svg id="Blocks" xmlns="http://www.w3.org/2000/svg" viewBox="0 0 500 500"><defs><style>.cls-1,.cls-2{fill:#757575;}.cls-1{stroke:#757575;stroke-miterlimit:10;stroke-width:10px;}</style></defs><title>Accordion block</title><path class="cls-1" d="M104.5,123.06h49.41v16.46H121V353.7h33v16.46H104.5Z"/><path class="cls-1" d="M392,375.16H342.55V358.7H375.5V144.52H342.55V128.06H392Z"/><path class="cls-2" d="M195.34,185.26V237.1H301.86V185.26Zm98,41.53H203.86V195.57h89.48Z"/><rect class="cls-2" x="208.33" y="209.12" width="15.43" height="4.12"/><path class="cls-2" d="M195.34,246.83v23.06H301.86V246.83Zm20.71,13.59h-5.66v5.65h-4.11v-5.65h-5.66V256.3h5.66v-5.66h4.11v5.66h5.66Z"/><path class="cls-2" d="M195.34,278.89V302H301.86V278.89Zm20.71,13.59h-5.66v5.66h-4.11v-5.66h-5.66v-4.11h5.66v-5.66h4.11v5.66h5.66Z"/></svg>