<svg id="Blocks" xmlns="http://www.w3.org/2000/svg" viewBox="0 0 500 500"><defs><style>.cls-1,.cls-2{fill:#e6e6e6;}.cls-1{stroke:#e6e6e6;stroke-miterlimit:10;stroke-width:10px;}</style></defs><title>Accordion block 2</title><path class="cls-1" d="M105.36,123.06h49.41v16.46h-33V353.7h33v16.46H105.36Z"/><path class="cls-1" d="M392.82,375.16H343.4V358.7h33V144.52h-33V128.06h49.42Z"/><path class="cls-2" d="M196.2,185.26V237.1H302.72V185.26Zm98,41.53H204.72V195.57H294.2Z"/><rect class="cls-2" x="209.19" y="209.12" width="15.43" height="4.12"/><path class="cls-2" d="M196.2,246.83v23.06H302.72V246.83Zm20.71,13.59h-5.66v5.65h-4.12v-5.65h-5.66V256.3h5.66v-5.66h4.12v5.66h5.66Z"/><path class="cls-2" d="M196.2,278.89V302H302.72V278.89Zm20.71,13.59h-5.66v5.66h-4.12v-5.66h-5.66v-4.11h5.66v-5.66h4.12v5.66h5.66Z"/></svg>