<svg id="Blocks" xmlns="http://www.w3.org/2000/svg" viewBox="0 0 500 500"><defs><style>.cls-1,.cls-2{fill:#e6e6e6;}.cls-1{stroke:#e6e6e6;stroke-miterlimit:10;stroke-width:10px;}.cls-2{fill-rule:evenodd;}</style></defs><title>Youtube block 2</title><path class="cls-1" d="M108.66,122.26h49.42v16.46h-33V352.9h33v16.46H108.66Z"/><path class="cls-1" d="M396.12,374.36H346.71V357.9h33V143.72h-33V127.26h49.41Z"/><g id="Page-1"><g id="Dribbble-Dark-Preview"><g id="icons"><path class="cls-2" d="M242.72,265.05V233.48c11.21,5.28,19.88,10.37,30.15,15.86-8.47,4.7-18.94,10-30.15,15.71m62.45-47.27a14.64,14.64,0,0,0-8.74-5.18c-10.31-2-74.62-2-84.92,0a14.93,14.93,0,0,0-7.47,3.78c-9.07,8.42-6.23,53.54-4,60.85a16.07,16.07,0,0,0,3.6,6.94,14.5,14.5,0,0,0,7.6,3.95c8.49,1.76,52.22,2.74,85.05.27a14.77,14.77,0,0,0,7.82-4c8.38-8.38,7.81-56,1.1-66.61"/></g></g></g></svg>