<svg id="Blocks" xmlns="http://www.w3.org/2000/svg" viewBox="0 0 500 500"><defs><style>.cls-1,.cls-2{fill:#757575;}.cls-1{stroke:#757575;stroke-miterlimit:10;stroke-width:10px;}.cls-2{fill-rule:evenodd;}</style></defs><title>Youtube block</title><path class="cls-1" d="M106.32,122.26h49.42v16.46H122.79V352.9h33v16.46H106.32Z"/><path class="cls-1" d="M393.78,374.36H344.37V357.9h32.95V143.72H344.37V127.26h49.41Z"/><g id="Page-1"><g id="Dribbble-Dark-Preview"><g id="icons"><path class="cls-2" d="M240.38,265.05V233.48c11.21,5.28,19.89,10.37,30.15,15.86-8.47,4.7-18.94,10-30.15,15.71m62.45-47.27a14.64,14.64,0,0,0-8.74-5.18c-10.3-2-74.62-2-84.92,0a15,15,0,0,0-7.47,3.78c-9.07,8.42-6.22,53.54-4,60.85a16.07,16.07,0,0,0,3.6,6.94,14.5,14.5,0,0,0,7.6,3.95c8.49,1.76,52.22,2.74,85.06.27a14.78,14.78,0,0,0,7.81-4c8.38-8.38,7.81-56,1.1-66.61"/></g></g></g></svg>